<?xml version="1.0" encoding="utf-8"?>
<!-- Generator: Adobe Illustrator 28.0.0, SVG Export Plug-In . SVG Version: 6.00 Build 0)  -->
<svg version="1.1" xmlns="http://www.w3.org/2000/svg" xmlns:xlink="http://www.w3.org/1999/xlink" x="0px" y="0px"
	 viewBox="0 0 512 512" style="enable-background:new 0 0 512 512;" xml:space="preserve">
<style type="text/css">
	.st0{fill:#FFFFFF;}
	.st1{fill:#F28A29;}
	.st2{fill:#FEDC0F;}
	.st3{fill:#A1C264;}
	.st4{fill:#089ED3;}
	.st5{fill:#694A98;}
	.st6{fill:#D31416;}
</style>
<g id="typo">
	<g>
		<path class="st0" d="M189.69,301.05c0.1,0.16-0.07,0.39-0.53,0.69l-3.52,2.29c-0.17,0.11-0.32,0.17-0.47,0.18
			c-0.14,0.01-0.34-0.08-0.58-0.27c-0.46-0.33-1.16-0.91-2.11-1.72c-1.03-0.76-1.87-1.5-2.52-2.23c-0.52-0.52-1.19-1.12-2.01-1.78
			c-0.82-0.67-1.48-1.15-1.98-1.46c-0.87-0.52-1.77-1.17-2.69-1.94l-1.7-1.38c-0.5-0.31-0.83-0.48-1-0.51
			c-0.17-0.03-0.38,0.03-0.63,0.2c-0.88,0.57-1.52,1.02-1.91,1.33l-2.63,1.88c-0.31,0.26-1.85,1.29-4.61,3.09l-3.84,2.49l-0.13,0.08
			c-0.25,0.16-0.3,0.51-0.13,1.03l0.27,0.69l0.49,1.31c0.05,0.26,0.53,1.6,1.46,4.03c0.32,0.77,0.68,1.79,1.1,3.06
			c0.44,0.86,0.68,1.65,0.73,2.36c-0.01,0.18,0.07,0.53,0.24,1.05c0.16,0.53,0.29,0.96,0.39,1.29c0.08,0.4,0.28,1.02,0.58,1.86
			c-0.02,0.07,0,0.19,0.05,0.35c0.05,0.17,0.04,0.29-0.03,0.36c-0.07,0.08-0.19,0.17-0.36,0.28l-1.26,0.82
			c-0.38,0.25-0.65,0.05-0.82-0.58c-0.08-0.12-0.12-0.23-0.13-0.34c-0.05-0.08-0.1-0.19-0.13-0.34c-0.04-0.15-0.09-0.37-0.16-0.67
			l-0.89-2.6c-0.07-0.3-0.2-0.81-0.38-1.55c-0.18-0.74-0.4-1.4-0.66-1.98c-0.42-1.1-0.98-2.83-1.67-5.18l-0.6-2.02
			c-0.83-3.01-1.46-5.09-1.91-6.23l-1.2-3.77c-0.45-1.6-0.74-2.61-0.89-3.03c-0.49-1.4-1.05-3.18-1.69-5.34l-0.66-1.98l-0.45-1.51
			c-0.47-1.64-0.76-2.86-0.85-3.65c-0.07-0.3-0.31-1.33-0.72-3.1c-0.4-1.77-0.8-3.13-1.18-4.09c-0.34-1.16-0.5-2.08-0.5-2.77
			c0-0.69,0.27-1.21,0.82-1.56c0.21-0.14,0.54-0.09,0.98,0.13c0.44,0.23,0.94,0.53,1.49,0.92c0.55,0.39,0.94,0.67,1.19,0.86
			c0.83,0.55,2.66,2.08,5.49,4.59l1.6,1.36c0.25,0.3,2.22,1.82,5.92,4.57l3.35,2.54l2.98,2.1c3.24,2.42,5.25,3.86,6.03,4.32
			c4.24,3.31,6.77,5.33,7.6,6.05c0.97,0.86,2.3,1.86,3.97,3c1.67,1.15,2.61,1.79,2.83,1.94
			C189.42,300.77,189.62,300.93,189.69,301.05z M166.24,289.33c-0.13-0.2-0.57-0.55-1.3-1.04c-0.64-0.44-1.75-1.32-3.33-2.64
			c-1.24-1.08-2.36-1.98-3.37-2.7c-1.2-0.93-2.58-2.07-4.14-3.41c-1.55-1.34-2.53-2.22-2.93-2.65c-2.02-1.72-3.13-2.52-3.34-2.38
			c-0.13,0.08,0.02,0.76,0.43,2.04l0.49,1.57c0.41,1.28,0.92,2.88,1.52,4.81c0.6,1.93,1.08,3.58,1.43,4.95
			c0.43,1.21,0.94,2.75,1.53,4.63c0.59,1.88,0.96,3.2,1.1,3.96c0.07,0.3,0.12,0.46,0.15,0.5c0.18,0.28,0.44,0.37,0.76,0.28
			c0.32-0.1,0.62-0.24,0.88-0.44c0.26-0.2,0.43-0.32,0.52-0.38l3.57-2.49c0.45-0.41,1.14-0.91,2.06-1.51l3.43-2.15
			C166.24,289.93,166.42,289.62,166.24,289.33z"/>
		<path class="st0" d="M187.24,262c-0.73,1.52-0.98,3.52-0.73,6.02c0.24,2.5,1.2,5.36,2.88,8.6c1.64,3.15,3.46,5.38,5.47,6.69
			c2.01,1.31,3.87,1.98,5.59,2c1.72,0.03,3.06-0.21,4.04-0.72c0.88-0.46,1.64-1.19,2.29-2.2c0.65-1.01,1.16-2,1.54-2.95
			c0.05-0.14,0.14-0.37,0.24-0.69c0.11-0.33,0.26-0.54,0.46-0.64c0.24-0.13,0.58-0.19,1.01-0.2l7.78-0.23
			c0.24-0.02,0.61-0.06,1.1-0.12c0.49-0.07,0.86-0.08,1.09-0.04c0.24,0.04,0.41,0.17,0.52,0.38c0.11,0.21,0.16,0.49,0.15,0.82
			c-0.26,2.13-1.1,4.63-2.53,7.48c-1.43,2.85-4.17,5.33-8.22,7.43c-3.17,1.65-6.75,2.19-10.72,1.63c-3.98-0.56-7.77-2.17-11.39-4.84
			c-3.61-2.67-6.54-6.15-8.77-10.46c-2.21-4.26-3.36-8.53-3.44-12.81c-0.08-4.28,0.69-8.07,2.33-11.35
			c1.64-3.28,3.85-5.65,6.64-7.09c3.46-1.8,6.59-2.62,9.36-2.46c2.78,0.16,4.92,0.57,6.45,1.24c0.33,0.15,0.63,0.29,0.91,0.42
			c0.28,0.13,0.48,0.29,0.59,0.51c0.13,0.26,0.04,0.74-0.27,1.44c-1.45,2.7-2.36,4.88-2.74,6.53c-0.2,0.81-0.4,1.44-0.6,1.89
			c-0.2,0.46-0.47,0.77-0.81,0.95c-0.34,0.18-0.84,0.17-1.5-0.03c-1.53-0.45-2.69-0.73-3.46-0.84c-0.77-0.11-1.55,0.03-2.33,0.44
			C188.95,259.41,187.97,260.48,187.24,262z"/>
		<path class="st0" d="M258.65,286.98c0.01,0.1-0.1,0.28-0.32,0.54c-0.42,0.33-1.53,0.58-3.32,0.76c-1.29,0.13-2.12,0.12-2.49-0.01
			c-0.36-0.13-0.65-0.38-0.86-0.75c-0.21-0.36-0.38-0.64-0.49-0.82c-0.18-0.27-0.87-1.04-2.07-2.29c-1.2-1.26-2.11-2.22-2.73-2.88
			c-2.96-2.99-5.53-5.71-7.73-8.14c-1.35-1.51-3.84-4.09-7.46-7.74l-1.33-1.32l-5.75-5.66l-0.02,2.9c-0.06,1.45,0.06,3.18,0.35,5.17
			c0.28,1.32,0.72,4.78,1.31,10.36c0.59,5.58,1.02,9.67,1.27,12.25c0.07,0.76-0.18,1.28-0.75,1.56c-0.58,0.27-1.26,0.45-2.06,0.53
			c-0.35,0.03-0.59-0.09-0.71-0.36c-0.13-0.28-0.22-0.58-0.28-0.91c-0.06-0.33-0.09-0.55-0.1-0.64c-0.17-0.75-0.33-1.87-0.48-3.35
			c-0.09-0.95-0.14-1.67-0.13-2.16c-0.2-2.58-0.57-7.09-1.09-13.53c-0.53-6.43-1.04-12.21-1.54-17.32
			c-0.54-5.49-0.92-8.69-1.16-9.58c-0.09-0.38-0.16-0.88-0.22-1.5c-0.07-0.72,0-1.18,0.2-1.39c0.21-0.21,0.53-0.34,0.98-0.38
			c0.99-0.1,1.97-0.17,2.92-0.21l8.15-0.65c2.99-0.29,6.14-0.09,9.48,0.6c3.33,0.69,5.13,2.39,5.4,5.12
			c0.25,2.58-0.55,4.68-2.4,6.31c-1.85,1.63-3.98,2.82-6.39,3.59c-2.41,0.77-4.54,1.24-6.38,1.42c-0.65,0.06-1,0.07-1.05,0.03
			c0.33,0.26,2.54,2.6,6.64,7.02c12.32,13.03,19.11,20.03,20.36,21.02C257.84,285.69,258.6,286.51,258.65,286.98z M227.15,253.74
			c2.88-0.38,5.1-0.79,6.66-1.23c2.25-0.61,3.93-1.3,5.03-2.08c1.1-0.78,1.59-1.89,1.45-3.32c-0.09-0.96-0.7-1.73-1.81-2.32
			c-1.11-0.59-2.42-0.99-3.92-1.21c-1.5-0.21-2.8-0.27-3.9-0.16c-1.25,0.07-2.99,0.22-5.23,0.44l-2.54,0.25l0.53,10.08
			C225.07,254.01,226.31,253.87,227.15,253.74z"/>
		<path class="st0" d="M296.6,248.82c1.73,3.31,2.92,6.53,3.56,9.64c0.64,3.11,0.93,5.56,0.89,7.34c-0.08,2.98-0.66,6.42-1.74,10.32
			c-1.08,3.91-3.27,7.51-6.56,10.8c-3.29,3.3-7.96,4.86-14.01,4.69c-8.3-0.23-14.07-5.02-17.31-14.38
			c-1.43-4.22-2.18-8.89-2.24-14.03c0.12-4.22,1.15-8.22,3.1-11.98c1.95-3.76,4.47-6.76,7.56-8.98c3.09-2.22,6.23-3.29,9.43-3.2
			c2.9,0.08,5.06,0.21,6.48,0.39c1.42,0.18,2.69,0.65,3.83,1.4C292.53,242.85,294.87,245.51,296.6,248.82z M290.49,281.53
			c2.71-4.18,4.16-9.48,4.34-15.91c0.11-3.93-0.41-7.59-1.54-10.95c-1.13-3.37-2.78-6.08-4.95-8.13c-2.17-2.05-4.7-3.12-7.6-3.2
			c-0.25-0.01-0.91-0.02-1.99-0.05c-1.08-0.03-2.02,0.11-2.83,0.43c-0.81,0.31-1.55,0.8-2.22,1.45c-1.69,1.54-3.12,2.95-4.28,4.24
			c-1.16,1.29-2.34,3.21-3.53,5.77c-1.2,2.56-1.84,5.54-1.93,8.95c-0.11,4.03,0.3,7.8,1.23,11.31c0.93,3.51,2.49,6.38,4.68,8.63
			c2.19,2.25,5.06,3.42,8.61,3.51C283.77,287.72,287.78,285.71,290.49,281.53z"/>
		<path class="st0" d="M332.51,253.18c2.65,2.38,4.64,4.55,5.97,6.49c0.16,0.23,0.21,0.46,0.16,0.7c-0.03,0.14-0.13,0.3-0.29,0.49
			c-0.17,0.19-0.28,0.32-0.35,0.41c-0.31,0.28-0.84,0.77-1.57,1.48c-0.73,0.71-1.31,1.21-1.73,1.52c-0.19,0.16-0.39,0.32-0.6,0.5
			c-0.22,0.18-0.39,0.3-0.54,0.37c-0.14,0.07-0.34,0.08-0.58,0.03c-0.1-0.02-0.3-0.22-0.6-0.6c-0.3-0.38-0.6-0.72-0.9-1.03
			c-1.62-2.05-3.24-3.85-4.86-5.41c-1.62-1.56-3.28-2.52-5-2.87c-1.37-0.28-2.56-0.22-3.56,0.18c-1,0.41-1.72,1.64-2.15,3.71
			c-0.42,2.02,0.04,3.76,1.38,5.21c1.33,1.45,3.19,2.96,5.57,4.53c0.22,0.15,1.54,1.03,3.93,2.65c2.4,1.62,4.29,4.17,5.7,7.65
			c1.4,3.48,1.67,7.33,0.79,11.56c-0.93,4.51-3.39,7.53-7.38,9.06c-3.99,1.53-9.1,1.65-15.32,0.37c-7.05-1.46-11.26-3.68-12.63-6.69
			c-1.37-3-2.1-4.56-2.17-4.68c-0.15-0.28-0.2-0.53-0.15-0.77c0.03-0.14,0.29-0.41,0.78-0.8c0.81-0.72,1.95-1.53,3.42-2.46
			c0.23-0.15,0.45-0.2,0.65-0.16c0.24,0.05,0.48,0.28,0.7,0.7c0.22,0.41,0.41,0.73,0.57,0.96c2.32,3.37,5.31,5.43,8.98,6.19
			c1.86,0.38,3.55,0.38,5.06-0.02c1.51-0.4,2.46-1.54,2.85-3.42c0.67-3.24-1.29-7.25-5.87-12.02c-0.77-0.75-1.5-1.39-2.21-1.93
			c-1.83-1.51-3.38-2.93-4.63-4.26c-1.26-1.34-2.27-2.97-3.05-4.89c-0.78-1.93-0.93-4.02-0.47-6.27c0.58-2.82,2.02-5.17,4.33-7.05
			c2.3-1.88,4.87-3.19,7.7-3.92c2.83-0.74,5.2-0.91,7.11-0.52C326.22,249.12,329.87,250.79,332.51,253.18z"/>
		<path class="st0" d="M371.57,274.21c1.16,2.4,1.76,3.66,1.81,3.79c0.3,0.52,0.37,0.94,0.22,1.24c-0.09,0.17-0.26,0.3-0.52,0.38
			c-0.22,0.11-0.67,0.34-1.35,0.7c-0.68,0.36-1.13,0.48-1.36,0.37s-0.46-0.36-0.71-0.76l-0.28-0.62c-2.23-4.05-4.56-6.68-6.98-7.88
			c-3.09-1.53-5.77-2.01-8.03-1.45c-2.26,0.57-3.9,1.88-4.93,3.95c-0.87,1.76-0.96,3.6-0.25,5.5c0.7,1.9,1.85,3.94,3.45,6.13
			c0.5,0.57,1.03,1.13,1.6,1.67c1.84,1.93,3.36,3.77,4.59,5.53c1.22,1.76,2.04,3.9,2.46,6.44c0.42,2.54-0.08,5.22-1.48,8.06
			c-2.41,4.86-5.78,7.33-10.11,7.41c-4.34,0.08-8.63-0.94-12.89-3.05c-2.46-1.22-4.43-2.86-5.89-4.93
			c-1.46-2.06-2.42-3.71-2.86-4.95c-0.26-0.61-0.18-1.05,0.24-1.33c0.09-0.06,0.45-0.31,1.08-0.75c0.63-0.44,1.09-0.59,1.35-0.45
			l0.13,0.07c0.13,0.07,0.24,0.16,0.32,0.28c0.08,0.12,0.16,0.31,0.23,0.55c0.07,0.25,0.17,0.54,0.28,0.86
			c0.3,0.85,1.13,2.05,2.49,3.6c1.35,1.55,2.59,2.61,3.71,3.16c2.37,1.18,4.88,1.81,7.51,1.91c2.63,0.1,4.72-1.42,6.28-4.56
			c0.66-1.33,0.62-2.8-0.12-4.4c-0.74-1.6-2.08-3.71-4.02-6.33l-2.12-2.98c-2.28-3.27-3.82-6.34-4.61-9.19
			c-0.79-2.85-0.39-5.9,1.21-9.12c1.32-2.67,3.27-4.6,5.84-5.79c2.57-1.19,5.31-1.71,8.22-1.55c2.91,0.15,5.55,0.82,7.92,2
			C367.88,269.65,370.41,271.81,371.57,274.21z"/>
		<path class="st0" d="M227.69,300.39c0.12,1,0.32,2.24,0.61,3.7c0.26,1.32,0.68,3.1,1.27,5.33c0.25,1.27-0.49,2.07-2.2,2.41
			l-12.96,2.52l1.27,7.31c0.11,0.81,0.47,2.82,1.1,6.02c0.64,3.3,1.29,6.5,1.95,9.6c0.65,3.1,1.2,5.78,1.64,8.04l0.64,2.88
			l0.07,0.35c0.08,0.42,0.07,0.7-0.03,0.81c-0.1,0.12-0.26,0.2-0.45,0.23c-0.2,0.04-0.34,0.07-0.44,0.09l-5.01,0.98
			c-0.59,0.11-0.95,0.09-1.09-0.08c-0.14-0.17-0.25-0.5-0.35-1c-0.1-0.49-0.17-0.86-0.21-1.1l-1.41-8.82
			c-1.19-7.69-2-12.62-2.42-14.79c-0.24-1.23-0.65-3.05-1.22-5.48l-0.8-3.73c-3.53,0.69-7.11,1.43-10.72,2.24l-2.27,0.51
			c-0.64,0.12-1.11,0.05-1.42-0.24c-0.31-0.28-0.43-0.65-0.37-1.1l-0.27-1.78c-0.43-2.75-0.88-5.28-1.33-7.59
			c-0.22-1.13-0.38-1.81-0.47-2.04l-0.1-0.49c-0.1-0.52-0.05-0.84,0.15-0.98c0.2-0.14,0.52-0.25,0.97-0.34l7.29-1.42l4.11-0.87
			c2.53-0.59,4.32-0.99,5.35-1.19l4.43-0.79c3.55-0.59,6.33-1.09,8.35-1.48c1.47-0.29,2.42-0.5,2.86-0.63
			c1.07-0.26,1.86-0.25,2.37,0.01c0.51,0.27,0.81,0.61,0.89,1.04C227.49,298.77,227.58,299.39,227.69,300.39z"/>
		<path class="st0" d="M257.26,316.88c1.05,0,2.02-0.05,2.92-0.14c0.3-0.05,0.77-0.07,1.42-0.07c0.7,0,1.22,0.02,1.58,0.07
			l1.72,0.14l0.23-2.16l0.22-3.46l0.15-7.06l0.15-5.54c0.05-0.72,0.15-1.2,0.3-1.44c0.15-0.24,0.5-0.38,1.05-0.43
			c0.5,0,1.9-0.14,4.2-0.43c0.4-0.05,1.12-0.07,2.17-0.07c1.6,0,2.92,0.07,3.97,0.22c0.55,0.1,0.89,0.2,1.01,0.32
			c0.12,0.12,0.2,0.32,0.22,0.61s0.06,0.55,0.11,0.79c0,0.77-0.08,2.06-0.23,3.89c-0.2,3.36-0.3,5.67-0.3,6.91
			c0,0.62-0.15,2.62-0.45,5.98c-0.3,3.65-0.45,6.02-0.45,7.13l0.15,14.26c0,5.38,0.1,8.67,0.3,9.86v0.14c0,0.53-0.1,0.85-0.3,0.97
			c-0.2,0.12-0.43,0.17-0.67,0.14c-0.25-0.02-0.43-0.04-0.53-0.04c-0.4-0.1-0.9-0.14-1.5-0.14c-0.2,0-0.85,0.05-1.95,0.14
			c-1.4,0.14-3.65,0.22-6.75,0.22h-0.15c-0.7,0-1.05-0.22-1.05-0.65c0-0.91-0.01-2.71-0.04-5.4c-0.03-2.69-0.11-4.66-0.26-5.9
			c-0.1-1.82-0.15-3.6-0.15-5.33c-0.05-0.72-0.08-1.82-0.08-3.31h-2.17l-3.23,0.07l-1.35,0.07l-1.5-0.07c-0.75,0-1.35-0.02-1.8-0.07
			l-0.23,4.54c-0.15,1.68-0.23,3.86-0.23,6.55v3.67c0,2.59,0.05,4.15,0.15,4.68c0.1,0.58,0.01,0.92-0.26,1.04
			c-0.28,0.12-0.6,0.18-0.98,0.18s-0.64,0-0.79,0c-0.4-0.05-1.08-0.11-2.02-0.18c-0.95-0.07-1.73-0.11-2.32-0.11l-2.18,0.14
			c-0.35,0.05-1.65,0.14-3.9,0.29c-1.15,0.14-1.73-0.53-1.73-2.02l0.08-2.81l0.15-5.18c0-1.05,0.02-2.04,0.08-2.95l0.07-8.35
			c0-1.92-0.03-3.14-0.07-3.67c-0.15-1.1-0.23-2.54-0.23-4.32l0.07-4.39c0.05-0.72,0.08-1.66,0.08-2.81c0-1.34,0.15-4.13,0.45-8.35
			l0.22-4.97c0-0.38,0.08-0.65,0.23-0.79c0.15-0.14,0.38-0.22,0.68-0.22l0.97,0.07c0.65,0.1,1.5,0.17,2.55,0.22
			c1.05,0.05,2.07,0.07,3.07,0.07l3.45-0.07c0.55-0.05,1.17-0.07,1.88-0.07h0.08c0.4,0,0.6,0.26,0.6,0.79
			c0.05,0.1,0.09,1.04,0.11,2.84c0.02,1.8,0.04,3.92,0.04,6.37c0,1.54-0.05,3.6-0.15,6.19l-0.15,3.31L257.26,316.88z"/>
		<path class="st0" d="M319.16,316.26c-0.21,0.69-0.64,0.96-1.27,0.81c-0.19-0.05-0.45-0.15-0.77-0.33
			c-0.32-0.17-0.57-0.31-0.75-0.4c-0.7-0.31-2.8-0.88-6.31-1.69l-2.76-0.72c-0.62-0.19-1.54-0.43-2.76-0.72
			c-0.88-0.2-1.54-0.33-1.99-0.39c-1.48-0.25-2.79-0.5-3.91-0.76l-3.85-0.97c-0.39-0.09-0.63-0.06-0.71,0.09
			c-0.09,0.15-0.2,0.53-0.34,1.14c-0.2,0.84-0.39,1.56-0.58,2.16c-0.53,1.85-0.94,3.36-1.21,4.52l-0.96,4.14
			c-0.23,0.98-0.38,1.74-0.45,2.26c0.38,0.14,1.03,0.31,1.96,0.53c0.82,0.24,2.52,0.66,5.1,1.26c1.07,0.25,2.64,0.57,4.71,0.95
			c1.58,0.27,2.61,0.46,3.1,0.57c0.68,0.16,1.35,0.35,2.02,0.58c0.66,0.23,1.17,0.38,1.51,0.46c0.63,0.15,0.88,0.5,0.75,1.06
			c-0.04,0.19-0.13,0.45-0.26,0.79c-0.13,0.34-0.26,0.79-0.39,1.35l-0.79,3.73c-0.1,0.42-0.22,0.7-0.35,0.84
			c-0.14,0.14-0.33,0.18-0.57,0.13c-0.14-0.03-0.35-0.12-0.6-0.25c-0.25-0.13-0.48-0.22-0.67-0.27c-0.44-0.1-1.25-0.31-2.43-0.64
			c-1.18-0.32-2.8-0.72-4.84-1.2c-2.19-0.51-4.11-0.86-5.76-1.05c-1.65-0.19-2.65-0.32-2.99-0.4c-0.54-0.12-0.85-0.22-0.93-0.29
			c-0.25-0.06-0.39-0.11-0.42-0.17l-1.63,7.01c0.34,0.08,0.61,0.12,0.82,0.12l2.06,0.41l8.63,1.94c1.75,0.41,3.13,0.76,4.15,1.04
			l5.02,1.24l3.08,0.64c0.59,0.14,0.94,0.36,1.08,0.66c0.13,0.3,0.15,0.69,0.04,1.15l-0.4,1.39l-1.22,4.89
			c-0.17,0.75-0.45,1.16-0.83,1.25c-0.38,0.08-0.88,0.04-1.51-0.13c-0.63-0.17-1.14-0.3-1.53-0.39c-2.09-0.49-3.89-0.93-5.39-1.33
			l-7.43-1.81c-0.58-0.14-3.52-0.75-8.81-1.83l-2.79-0.58l-0.45-0.03c-0.29-0.07-0.44-0.19-0.45-0.36c-0.01-0.17,0.04-0.5,0.15-0.96
			c0.07-0.53,0.25-1.4,0.53-2.61c0.09-0.37,0.16-0.79,0.21-1.24c0.05-0.46,0.17-1.06,0.34-1.8l2.24-9.61
			c0.22-0.93,0.47-1.84,0.75-2.71c0.28-0.87,0.47-1.52,0.57-1.94c0.69-2.1,1.27-4.14,1.73-6.1c0.57-2.43,0.94-4.36,1.12-5.8
			c0.27-1.61,0.56-3.07,0.87-4.38c0.69-2.94,1.56-6.36,2.62-10.26c0.14-0.61,0.36-0.99,0.65-1.14c0.29-0.15,0.66-0.18,1.1-0.08
			l1.08,0.33c0.44,0.1,1.14,0.3,2.09,0.6c0.96,0.3,2.14,0.61,3.56,0.94c1.61,0.37,3.53,0.7,5.78,0.98c2.67,0.43,4.45,0.74,5.32,0.94
			c2,0.46,3.81,0.96,5.43,1.49l2.61,0.68c0.63,0.15,1.01,0.38,1.14,0.71c0.13,0.33,0.11,0.86-0.07,1.61
			c-0.1,0.42-0.22,1.16-0.36,2.21c-0.19,1.24-0.38,2.3-0.59,3.19C319.76,314.65,319.49,315.5,319.16,316.26z"/>
		<path class="st0" d="M220.23,407.11c0.07,0.18,0.01,0.34-0.21,0.48c-0.21,0.14-0.4,0.25-0.56,0.31c-0.16,0.07-0.29,0.12-0.38,0.16
			l-7.73,3.48c-0.37,0.16-0.72,0.12-1.06-0.1c-0.34-0.22-0.86-0.65-1.56-1.3c-0.51-0.57-1.3-1.28-2.36-2.13
			c-1.59-1.21-4.44-3.53-8.53-6.96l-6.28-5.09l1.68,3.43l2.46,4.9c2.77,5.82,4.37,8.99,4.81,9.54c0.12,0.16,0.24,0.37,0.35,0.63
			c0.33,0.8,0.06,1.38-0.81,1.75c-0.28,0.12-0.52,0.19-0.72,0.22c-0.78,0.22-2.54,1.06-5.28,2.53c-1.86,0.99-3,1.57-3.42,1.75
			c-0.6,0.25-1.05,0.31-1.35,0.18c-0.3-0.14-0.56-0.47-0.78-1l-0.57-1.56l-1.75-3.79c-2.21-4.49-4.03-8.44-5.46-11.84
			c-0.74-1.77-1.18-3.02-1.32-3.74c-0.23-1.2-1.43-4.37-3.58-9.51c-2.25-5.35-4.04-9.37-5.37-12.03c-0.19-0.33-0.42-0.81-0.68-1.43
			c-0.3-0.71-0.44-1.25-0.43-1.61c0.01-0.37,0.09-0.6,0.24-0.69c0.15-0.09,0.44-0.22,0.85-0.4l1.47-0.77
			c3.03-1.69,5.49-2.93,7.38-3.72c5.16-2.17,9.58-2.52,13.25-1.07c3.67,1.45,6.36,4.22,8.07,8.29c1.36,3.23,1.57,6.78,0.65,10.66
			c-0.38,1.67-0.96,3.27-1.73,4.79l8.38,6.4c6.11,4.62,9.64,7.2,10.57,7.75C219.51,406.29,220.1,406.8,220.23,407.11z
			 M189.13,386.11c1.05-1.12,1.2-2.56,0.46-4.33c-0.54-1.28-1.15-2.15-1.82-2.59c-0.67-0.44-1.34-0.53-1.98-0.26
			c-0.51,0.21-0.87,0.57-1.09,1.08c-0.03,0.06,0.1,0.37,0.39,0.93c0.29,0.56,0.55,1.12,0.79,1.7c0.2,0.49,0.33,0.85,0.38,1.09
			c0.13,0.83,0.36,1.64,0.7,2.44l0.18,0.63l0.29,0.5C188.13,387,188.69,386.61,189.13,386.11z"/>
		<path class="st0" d="M240.78,358.07c2.83,2.42,4.83,5.45,6.01,9.1c1.17,3.65,2.07,7.83,2.67,12.54c0.49,3.81,0.4,7.8-0.28,11.98
			c-0.67,4.18-2.07,7.8-4.2,10.88c-2.13,3.08-5,4.85-8.62,5.32c-7.09,0.91-12.17-1.35-15.24-6.79c-3.07-5.44-5.02-11.44-5.87-18.01
			c-0.81-6.33-0.56-11.52,0.76-15.56c1.32-4.04,3.18-6.99,5.59-8.85c2.41-1.86,4.9-2.95,7.48-3.29
			C234.05,354.76,237.95,355.65,240.78,358.07z M236.14,387.3c0.46-1.51,0.56-3.27,0.31-5.27c-0.24-1.9-0.77-3.53-1.57-4.88
			c-0.8-1.35-1.73-1.96-2.77-1.82c-1.24,0.16-2.06,1.1-2.47,2.82c-0.41,1.72-0.49,3.54-0.25,5.44c0.25,1.95,0.65,3.52,1.21,4.71
			c0.56,1.19,1.5,1.69,2.84,1.52C234.78,389.65,235.68,388.81,236.14,387.3z"/>
		<path class="st0" d="M295.81,409.2c-0.04,0.38-0.51,0.53-1.4,0.44l-5.37-0.55c-0.2-0.02-0.38-0.21-0.55-0.56
			c-0.16-0.35-0.3-0.71-0.42-1.06c-0.12-0.35-0.21-0.65-0.28-0.9c-0.2-0.5-0.55-1.65-1.04-3.44c-0.49-1.79-0.87-3.2-1.11-4.24
			c-0.1-0.49-0.33-1.23-0.68-2.2c-0.35-0.98-0.61-1.67-0.77-2.07c-0.14-0.59-0.29-0.99-0.44-1.2c-0.16-0.21-0.41-0.33-0.75-0.37
			c-0.35-0.04-0.79-0.06-1.31-0.06c-0.53-0.01-1.09-0.01-1.69-0.03c-0.41,0.06-1.66-0.03-3.75-0.24c-1.44-0.15-2.87-0.25-4.27-0.29
			c-0.45,0-1.25-0.06-2.4-0.17l-3.95-0.48c-0.25-0.03-0.45,0.05-0.59,0.23c-0.14,0.18-0.26,0.4-0.33,0.65
			c-0.08,0.26-0.15,0.46-0.21,0.59l-0.63,1.74c-0.22,0.65-0.48,1.41-0.8,2.27c-0.31,0.86-0.59,1.67-0.81,2.41l-1.14,3l-0.81,2.02
			c-0.21,0.56-0.38,0.91-0.52,1.07c-0.14,0.16-0.34,0.22-0.59,0.19l-4.4-0.45c-0.25-0.03-0.36-0.13-0.34-0.32
			c0.01-0.1,0.14-0.42,0.4-0.97c0.49-0.87,0.93-1.74,1.32-2.61c2.45-5.73,3.94-9.49,4.47-11.27c0.69-2.34,1.93-5.33,3.71-8.96
			c0.61-1.58,1.19-3.01,1.72-4.31c0.22-0.65,0.53-1.44,0.92-2.37c1.29-3.24,2.55-6.27,3.8-9.09l2.45-5.54
			c0.55-1.44,1.2-2.92,1.96-4.43c0.37-0.69,0.74-0.82,1.1-0.39c0.28,0.22,0.47,0.58,0.57,1.07c0.1,0.49,0.17,0.84,0.2,1.03
			c0.09,0.59,1.11,3.59,3.07,9c0.79,2.06,1.6,4.72,2.42,7.99c0.36,1.44,1.42,4.56,3.18,9.37c0.91,2.36,1.5,3.99,1.76,4.89
			c0.62,1.75,2.35,6.03,5.17,12.84l0.71,1.88c0.89,2.55,1.6,4.19,2.13,4.92C295.73,408.73,295.83,409.05,295.81,409.2z
			 M279.32,382.6c0.25,0.03,0.45,0.02,0.6-0.01c0.15-0.03,0.24-0.1,0.25-0.19c0.01-0.1-0.05-0.29-0.17-0.6
			c-0.21-0.46-0.65-1.72-1.34-3.79c-0.69-2.07-1.16-3.63-1.41-4.67c-0.38-1.2-0.67-2.19-0.86-2.98c-0.2-0.79-0.35-1.34-0.47-1.64
			c-0.08-0.25-0.16-0.5-0.26-0.75c-0.1-0.25-0.19-0.45-0.28-0.61c-0.09-0.15-0.18-0.24-0.28-0.25c-0.15-0.02-0.35,0.33-0.6,1.02
			c-0.25,0.7-0.44,1.23-0.58,1.61c-1.18,2.68-2.04,4.71-2.59,6.1c-0.27,0.7-0.65,1.54-1.13,2.53c-0.48,0.99-0.81,1.67-1,2.03
			c-0.2,0.46-0.31,0.84-0.34,1.12c-0.03,0.29,0.18,0.45,0.63,0.5c1.04,0.11,2.65,0.24,4.82,0.39c2.17,0.15,3.53,0.21,4.09,0.17
			C278.77,382.57,279.07,382.58,279.32,382.6z"/>
		<path class="st0" d="M338.6,388.46c-0.21,3.56-0.98,7.29-2.31,11.19c-0.7,2.04-1.83,4.22-3.41,6.52c-1.58,2.3-3.36,4.33-5.36,6.09
			c-2,1.75-4,2.87-6.01,3.35c-2.75,0.64-5.91,0.66-9.46,0.09c-3.55-0.58-6.3-1.19-8.24-1.86l-7.24-2.47
			c-0.52-0.18-0.81-0.4-0.88-0.68s0.02-0.53,0.26-0.75c0.09-0.12,0.18-0.29,0.26-0.52c0.06-0.18,0.13-0.42,0.21-0.73
			c0.08-0.3,0.21-0.73,0.39-1.27c0.51-1.5,0.99-2.98,1.44-4.46l4.06-12.38l4.73-13.68c0.4-1.18,0.77-2.34,1.1-3.47
			c0.33-1.13,0.61-2.11,0.84-2.94l1.32-4.34c0.4-1.03,0.72-1.73,0.96-2.11c0.23-0.38,0.49-0.52,0.78-0.42l0.21,0.07
			c0.19,0.06,0.39,0.17,0.6,0.32c0.21,0.15,0.41,0.26,0.6,0.32c0.38,0.13,0.85,0.26,1.41,0.4c0.56,0.14,1.12,0.31,1.69,0.5
			l2.75,1.01c2.65,0.9,5,1.83,7.05,2.78c0.19,0.06,0.8,0.32,1.84,0.78c1.03,0.45,2.24,1.4,3.63,2.83c1.39,1.44,2.76,3.27,4.11,5.51
			C337.91,381.47,338.8,384.91,338.6,388.46z M317.7,413.78c3.04-0.39,5.91-1.77,8.62-4.14c2.71-2.37,4.92-6.08,6.64-11.13
			c1.7-5,2.23-9.29,1.58-12.89c-0.65-3.59-2-6.58-4.05-8.95c-2.09-2.39-4.79-4.17-8.09-5.34l-2.4,6.11
			c-0.9,2.18-2.02,5.22-3.35,9.13c-0.12,0.36-0.74,2.41-1.85,6.14c-0.38,1.59-0.81,3.07-1.27,4.44l-3.06,8.77
			c-0.51,1.35-1.28,3.52-2.3,6.52C311.37,413.74,314.55,414.18,317.7,413.78z"/>
	</g>
</g>
<g id="petale">
	<g>
		<path class="st1" d="M90.12,127.96c11.47-7.69,24.71,15.28,40.75,39.64c17.79,27.02,35.41,54.95,29.37,60.29
			c-11.37,2.65-30.01-24.52-46.93-47.71C96.54,157.2,79.74,134.91,90.12,127.96z"/>
		<path class="st2" d="M191.38,78.96c17.13-3.26,17.05,23.52,22.63,52.15c6.19,31.75,13.64,67.09,7.92,68.86
			c-8.41,0-16.94-35.43-23.79-63.31C191.35,109.02,179.1,81.29,191.38,78.96z"/>
		<path class="st3" d="M314.04,73.55c13.46,3.06,5.85,28.45-0.85,56.85c-7.43,31.48-18.91,70.3-26.94,69.57
			c-6.86-4.42,2.12-45.3,7.36-73.52C298.81,98.47,301.85,70.78,314.04,73.55z"/>
		<path class="st4" d="M404.1,136.64c10.69,7.54-4.8,27.13-20.55,49.66c-17.46,24.98-34.28,44.88-39,43.11
			c-3.53-6.48,7.51-31.49,21.92-54.4C380.77,152.3,392.85,128.71,404.1,136.64z"/>
		<path class="st5" d="M484.98,216.66c5.55,11.85-18.71,17.76-43.54,29.56c-27.53,13.08-49.18,23.25-50.36,19.48
			c-0.03-8.22,19.43-19.66,43.29-32.45C458.03,220.57,479.96,205.93,484.98,216.66z"/>
		<path class="st6" d="M26.07,217.6c5.98-11.64,27.53,0.95,52.06,13.37c27.19,13.78,47.78,30.1,46.06,34.72
			c-6.01,5.15-30.14-5.18-54.85-16.23C44.84,238.51,20.65,228.13,26.07,217.6z"/>
	</g>
</g>
</svg>
