<?xml version="1.0" encoding="utf-8"?>
<!-- Generator: Adobe Illustrator 28.0.0, SVG Export Plug-In . SVG Version: 6.00 Build 0)  -->
<svg version="1.1" id="Calque_1" xmlns="http://www.w3.org/2000/svg" xmlns:xlink="http://www.w3.org/1999/xlink" x="0px" y="0px"
	 viewBox="0 0 512 512" style="enable-background:new 0 0 512 512;" xml:space="preserve">
<style type="text/css">
	.st0{fill:#FFFFFF;}
	.st1{fill:#8767AC;}
	.st2{fill:#226798;}
	.st3{fill:#5C903F;}
	.st4{fill:#FFCB4C;}
	.st5{fill:#EB2027;}
	.st6{fill:#F19020;}
</style>
<g id="Calque_3">
	<rect class="st0" width="512" height="512"/>
</g>
<g id="Calque_2_00000108289933173944317130000008867385274552935562_">
	<path class="st1" d="M214.99,512H256c0,0-5.09-240.18-256-276.69c0,20.02,0,42.4,0,42.4S195.55,293.32,214.99,512z"/>
	<path class="st2" d="M256,512h42.77c0,0-3.21-280.05-298.77-319.39c0,30.04,0,43.14,0,43.14S232.58,256,256,512z"/>
	<path class="st3" d="M342.2,512c0,0-3.42-313.2-342.2-361.35c0,34.01,0,43.02,0,43.02S272.71,216.17,298.77,512
		C330.53,512,342.2,512,342.2,512z"/>
	<path class="st4" d="M381.96,512c0,0,3.24-348.96-381.96-405.72c0,34.01,0,45.28,0,45.28S311.58,175.71,342.2,512
		C373.97,512,381.96,512,381.96,512z"/>
	<path class="st5" d="M466.47,512c0,0,0-436.89-466.47-488.13c0,34.01,0,44.5,0,44.5S391.38,92.78,424.07,512
		C455.83,512,466.47,512,466.47,512z"/>
	<path class="st6" d="M424.07,512c0,0-6.63-400.23-424.07-445.28c0,34.01,0,40.64,0,40.64S361.23,149.2,381.96,512
		C413.72,511.99,424.07,512,424.07,512z"/>
</g>
</svg>
